<?xml version="1.0" encoding="UTF-8" standalone="no"?>
<!-- Created with Inkscape (http://www.inkscape.org/) -->

<svg
   xmlns:dc="http://purl.org/dc/elements/1.1/"
   xmlns:cc="http://creativecommons.org/ns#"
   xmlns:rdf="http://www.w3.org/1999/02/22-rdf-syntax-ns#"
   xmlns:svg="http://www.w3.org/2000/svg"
   xmlns="http://www.w3.org/2000/svg"
   xmlns:sodipodi="http://sodipodi.sourceforge.net/DTD/sodipodi-0.dtd"
   xmlns:inkscape="http://www.inkscape.org/namespaces/inkscape"
   width="348.79999mm"
   height="336mm"
   viewBox="0 0 348.79999 336"
   version="1.1"
   id="svg8"
   inkscape:version="0.92.4 (5da689c313, 2019-01-14)"
   sodipodi:docname="Kacper.svg">
  <defs
     id="defs2" />
  <sodipodi:namedview
     id="base"
     pagecolor="#ffffff"
     bordercolor="#666666"
     borderopacity="1.0"
     inkscape:pageopacity="0.0"
     inkscape:pageshadow="2"
     inkscape:zoom="0.48498062"
     inkscape:cx="280.67994"
     inkscape:cy="778.31615"
     inkscape:document-units="mm"
     inkscape:current-layer="layer1"
     showgrid="false"
     inkscape:window-width="1920"
     inkscape:window-height="1001"
     inkscape:window-x="-9"
     inkscape:window-y="-9"
     inkscape:window-maximized="1" />
  <metadata
     id="metadata5">
    <rdf:RDF>
      <cc:Work
         rdf:about="">
        <dc:format>image/svg+xml</dc:format>
        <dc:type
           rdf:resource="http://purl.org/dc/dcmitype/StillImage" />
        <dc:title></dc:title>
      </cc:Work>
    </rdf:RDF>
  </metadata>
  <g
     inkscape:label="Layer 1"
     inkscape:groupmode="layer"
     id="layer1"
     transform="translate(-0.5,-0.5)">
    <path
       id="path1092"
       inkscape:label="part"
       style="fill:none;stroke:#000000;stroke-width:1"
       d="m 48.2,148.5 h 11.427727 v -3.1 h 11.562727 v 3.1 h 11.382728 v -3.1 h 11.562727 v 3.1 h 11.382731 v -3.1 h 11.56272 v 3.1 h 11.38273 v -3.1 h 11.56273 v 3.1 h 11.38273 v -3.1 h 11.56272 v 3.1 H 174.4"
       inkscape:connector-curvature="0"
       sodipodi:nodetypes="cccccccccccccccccccccc" />
    <path
       id="path1094"
       inkscape:label="part"
       style="fill:none;stroke:#000000;stroke-width:1"
       d="m 109.75,160.845 v 15.31 h 3.1 v -15.31 h -3.1"
       inkscape:connector-curvature="0"
       sodipodi:nodetypes="ccccc" />
    <path
       id="path1096"
       inkscape:label="part"
       style="fill:none;stroke:#000000;stroke-width:1"
       d="m 174.4,148.5 v 12.345 h -3.1 v 15.31 h 3.1 V 188.5"
       inkscape:connector-curvature="0"
       sodipodi:nodetypes="cccccc" />
    <path
       id="path1098"
       inkscape:label="part"
       style="fill:none;stroke:#000000;stroke-width:1"
       d="m 174.4,188.5 h -11.42773 v 3.1 h -11.56272 v -3.1 h -11.38273 v 3.1 h -11.56273 v -3.1 h -11.38273 v 3.1 h -11.56272 v -3.1 H 94.135909 v 3.1 H 82.573182 v -3.1 H 71.190454 v 3.1 H 59.627727 v -3.1 H 48.2"
       inkscape:connector-curvature="0"
       sodipodi:nodetypes="cccccccccccccccccccccc" />
    <path
       id="path1100"
       inkscape:label="part"
       style="fill:none;stroke:#000000;stroke-width:1"
       d="m 48.2,188.5 v -12.345 h 3.1 v -15.31 H 48.2 V 148.5"
       inkscape:connector-curvature="0"
       sodipodi:nodetypes="cccccc" />
    <path
       id="path1102"
       inkscape:label="part"
       style="fill:none;stroke:#000000;stroke-width:1"
       d="M 4.0999999,51.3 H 16.355 v -3.1 h 15.49 v 3.1 H 44.1"
       inkscape:connector-curvature="0"
       sodipodi:nodetypes="cccccc" />
    <path
       id="path1104"
       inkscape:label="part"
       style="fill:none;stroke:#000000;stroke-width:1"
       d="m 44.1,51.3 v 7.543889 h 3.1 v 10.778889 h -3.1 v 10.598888 h 3.1 v 10.778889 h -3.1 v 10.598885 h 3.1 v 10.77889 h -3.1 v 10.59889 h 3.1 v 10.77889 H 44.1 V 141.3"
       inkscape:connector-curvature="0"
       sodipodi:nodetypes="cccccccccccccccccc" />
    <path
       id="path1106"
       inkscape:label="part"
       style="fill:none;stroke:#000000;stroke-width:1"
       d="M 44.1,141.3 H 31.845 v 3.1 h -15.49 v -3.1 H 4.0999999"
       inkscape:connector-curvature="0"
       sodipodi:nodetypes="cccccc" />
    <path
       id="path1108"
       inkscape:label="part"
       style="fill:none;stroke:#000000;stroke-width:1"
       d="m 4.0999999,141.3 v -7.54389 H 1 V 122.97722 H 4.0999999 V 112.37833 H 1 V 101.59944 H 4.0999999 V 91.000555 H 1 V 80.221666 H 4.0999999 V 69.622778 H 1 V 58.843889 H 4.0999999 V 51.3"
       inkscape:connector-curvature="0"
       sodipodi:nodetypes="cccccccccccccccccc" />
    <path
       id="path1110"
       inkscape:label="part"
       style="fill:none;stroke:#000000;stroke-width:1"
       d="M 3.0999999,242.9 H 15.355 v -3.1 h 15.49 v 3.1 H 43.1"
       inkscape:connector-curvature="0"
       sodipodi:nodetypes="cccccc" />
    <path
       id="path1112"
       inkscape:label="part"
       style="fill:none;stroke:#000000;stroke-width:1"
       d="m 43.1,242.9 v 7.54389 0 l -12.170833,10.77889 v 0 10.59889 0 10.77888 0 10.59889 0 10.77889 0 10.59889 0 L 43.1,325.35611 v 0 7.54389"
       inkscape:connector-curvature="0"
       sodipodi:nodetypes="cccccccccccccccccc" />
    <path
       id="path1114"
       inkscape:label="part"
       style="fill:none;stroke:#000000;stroke-width:1"
       d="M 43.1,332.9 H 30.845 v 3.1 h -15.49 v -3.1 H 3.0999999"
       inkscape:connector-curvature="0"
       sodipodi:nodetypes="cccccc" />
    <path
       id="path1116"
       inkscape:label="part"
       style="fill:none;stroke:#000000;stroke-width:1"
       d="m 3.0999999,332.9 v -7.54389 0 -10.77889 0 -10.59889 0 -10.77889 0 -10.59889 0 -10.77888 0 -10.59889 0 -10.77889 0 V 242.9"
       inkscape:connector-curvature="0"
       sodipodi:nodetypes="cccccccccccccccccc" />
    <path
       id="path1118"
       inkscape:label="part"
       style="fill:none;stroke:#000000;stroke-width:1"
       d="m 48.2,48.2 h 11.517727 v 3.1 h 11.382727 v -3.1 h 11.562728 v 3.1 h 11.382727 v -3.1 h 11.562731 v 3.1 h 11.38272 v -3.1 h 11.56273 v 3.1 h 11.38273 v -3.1 h 11.56273 v 3.1 h 11.38272 V 48.2 H 174.4"
       inkscape:connector-curvature="0"
       sodipodi:nodetypes="cccccccccccccccccccccc" />
    <path
       id="path1120"
       inkscape:label="part"
       style="fill:none;stroke:#000000;stroke-width:1"
       d="m 174.4,48.2 v 10.733889 h -3.1 v 10.598889 h 3.1 v 10.778888 h -3.1 v 10.598889 h 3.1 v 10.778885 h -3.1 v 10.59889 h 3.1 v 10.77889 h -3.1 v 10.59889 h 3.1 V 144.4"
       inkscape:connector-curvature="0"
       sodipodi:nodetypes="cccccccccccccccccc" />
    <path
       id="path1122"
       inkscape:label="part"
       style="fill:none;stroke:#000000;stroke-width:1"
       d="m 174.4,144.4 h -11.51773 v -3.1 h -11.38272 v 3.1 h -11.56273 v -3.1 h -11.38273 v 3.1 h -11.56273 v -3.1 h -11.38272 v 3.1 H 94.045909 v -3.1 H 82.663182 v 3.1 H 71.100454 v -3.1 H 59.717727 v 3.1 H 48.2"
       inkscape:connector-curvature="0"
       sodipodi:nodetypes="cccccccccccccccccccccc" />
    <path
       id="path1124"
       inkscape:label="part"
       style="fill:none;stroke:#000000;stroke-width:1"
       d="m 48.2,144.4 v -10.73389 h 3.1 v -10.59889 h -3.1 v -10.77889 h 3.1 V 101.68944 H 48.2 V 90.910555 h 3.1 V 80.311666 H 48.2 V 69.532778 h 3.1 V 58.933889 H 48.2 V 48.2"
       inkscape:connector-curvature="0"
       sodipodi:nodetypes="cccccccccccccccccc" />
    <path
       id="path1126"
       inkscape:label="part"
       style="fill:none;stroke:#000000;stroke-width:1"
       d="m 178.5,51.3 h 12.255 v -3.1 h 15.49 v 3.1 H 218.5"
       inkscape:connector-curvature="0"
       sodipodi:nodetypes="cccccc" />
    <path
       id="path1128"
       inkscape:label="part"
       style="fill:none;stroke:#000000;stroke-width:1"
       d="m 218.5,51.3 v 7.543889 h 3.1 v 10.778889 h -3.1 v 10.598888 h 3.1 v 10.778889 h -3.1 v 10.598885 h 3.1 v 10.77889 h -3.1 v 10.59889 h 3.1 v 10.77889 h -3.1 V 141.3"
       inkscape:connector-curvature="0"
       sodipodi:nodetypes="cccccccccccccccccc" />
    <path
       id="path1130"
       inkscape:label="part"
       style="fill:none;stroke:#000000;stroke-width:1"
       d="m 218.5,141.3 h -12.255 v 3.1 h -15.49 v -3.1 H 178.5"
       inkscape:connector-curvature="0"
       sodipodi:nodetypes="cccccc" />
    <path
       id="path1132"
       inkscape:label="part"
       style="fill:none;stroke:#000000;stroke-width:1"
       d="m 178.5,141.3 v -7.54389 h -3.1 v -10.77889 h 3.1 v -10.59889 h -3.1 v -10.77889 h 3.1 V 91.000555 h -3.1 V 80.221666 h 3.1 V 69.622778 h -3.1 V 58.843889 h 3.1 V 51.3"
       inkscape:connector-curvature="0"
       sodipodi:nodetypes="cccccccccccccccccc" />
    <path
       id="path1134"
       inkscape:label="part"
       style="fill:none;stroke:#000000;stroke-width:1"
       d="m 222.6,48.2 h 11.51773 v 3.1 h 11.38272 v -3.1 h 11.56273 v 3.1 h 11.38273 v -3.1 h 11.56273 v 3.1 h 11.38272 v -3.1 h 11.56273 v 3.1 h 11.38273 v -3.1 h 11.56272 v 3.1 h 11.38273 V 48.2 H 348.8"
       inkscape:connector-curvature="0"
       sodipodi:nodetypes="cccccccccccccccccccccc" />
    <path
       id="path1136"
       inkscape:label="part"
       style="fill:none;stroke:#000000;stroke-width:1"
       d="m 348.8,48.2 v 10.733889 h -3.1 v 10.598889 h 3.1 v 10.778888 h -3.1 v 10.598889 h 3.1 v 10.778885 h -3.1 v 10.59889 h 3.1 v 10.77889 h -3.1 v 10.59889 h 3.1 V 144.4"
       inkscape:connector-curvature="0"
       sodipodi:nodetypes="cccccccccccccccccc" />
    <path
       id="path1138"
       inkscape:label="part"
       style="fill:none;stroke:#000000;stroke-width:1"
       d="m 348.8,144.4 h -11.51773 v -3.1 h -11.38273 v 3.1 h -11.56272 v -3.1 h -11.38273 v 4.15833 H 291.39136 V 141.3 h -11.38272 v 4.15833 H 268.44591 V 141.3 h -11.38273 v 3.1 h -11.56273 v -3.1 h -11.38272 v 3.1 H 222.6"
       inkscape:connector-curvature="0"
       sodipodi:nodetypes="cccccccccccccccccccccc" />
    <path
       id="path1140"
       inkscape:label="part"
       style="fill:none;stroke:#000000;stroke-width:1"
       d="m 222.6,144.4 v -10.73389 h 3.1 v -10.59889 h -3.1 v -10.77889 h 3.1 v -10.59889 h -3.1 V 90.910555 h 3.1 V 80.311666 h -3.1 V 69.532778 h 3.1 V 58.933889 h -3.1 V 48.2"
       inkscape:connector-curvature="0"
       sodipodi:nodetypes="cccccccccccccccccc" />
    <path
       id="path1142"
       inkscape:label="part"
       style="fill:none;stroke:#000000;stroke-width:1"
       d="M 48.2,4.0999999 H 59.627727 V 1 H 71.190454 V 4.0999999 H 82.573182 V 1 H 94.135909 V 4.0999999 H 105.51864 V 1 h 11.56272 v 3.0999999 h 11.38273 V 1 h 11.56273 v 3.0999999 h 11.38273 V 1 h 11.56272 V 4.0999999 H 174.4"
       inkscape:connector-curvature="0"
       sodipodi:nodetypes="cccccccccccccccccccccc" />
    <path
       id="path1144"
       inkscape:label="part"
       style="fill:none;stroke:#000000;stroke-width:1"
       d="m 109.75,16.445 v 15.31 h 3.1 v -15.31 h -3.1"
       inkscape:connector-curvature="0"
       sodipodi:nodetypes="ccccc" />
    <path
       id="path1146"
       inkscape:label="part"
       style="fill:none;stroke:#000000;stroke-width:1"
       d="M 174.4,4.0999999 V 16.445 h -3.1 v 15.31 h 3.1 V 44.1"
       inkscape:connector-curvature="0"
       sodipodi:nodetypes="cccccc" />
    <path
       id="path1148"
       inkscape:label="part"
       style="fill:none;stroke:#000000;stroke-width:1"
       d="m 174.4,44.1 h -11.42773 v 3.1 h -11.56272 v -3.1 h -11.38273 v 3.1 h -11.56273 v -3.1 h -11.38273 v 3.1 H 105.51864 V 44.1 H 94.135909 v 3.1 H 82.573182 V 44.1 H 71.190454 v 3.1 H 59.627727 V 44.1 H 48.2"
       inkscape:connector-curvature="0"
       sodipodi:nodetypes="cccccccccccccccccccccc" />
    <path
       id="path1150"
       inkscape:label="part"
       style="fill:none;stroke:#000000;stroke-width:1"
       d="M 48.2,44.1 V 31.755 h 3.1 V 16.445 H 48.2 V 4.0999999"
       inkscape:connector-curvature="0"
       sodipodi:nodetypes="cccccc" />
    <path
       style="fill:#000000;stroke-width:0.35277778"
       d="m 247.51583,131.60332 c -2.02515,-5.27364 -2.22205,-6.20914 -2.20893,-10.49514 0.0183,-5.9784 1.15465,-9.99121 5.82274,-20.56173 l 1.75814,-3.981149 -1.57512,-1.751901 c -5.76835,-6.415766 -15.65549,-24.225766 -16.80045,-30.263146 -0.73561,-3.87885 0.30925,-4.10787 5.92214,-1.29805 8.19078,4.10031 16.74276,10.4171 25.69773,18.98123 l 2.88041,2.75469 11.40709,0.19361 c 6.67688,0.11332 12.31551,0.37156 13.59775,0.62275 2.14033,0.41928 2.25785,0.40155 5.11528,-0.77173 16.33444,-6.70707 35.33295,-12.99888 37.14792,-12.30241 0.75596,0.29009 0.65039,1.33191 -0.3684,3.63558 -3.41864,7.73016 -13.42363,19.79732 -19.8392,23.928366 -1.20531,0.77612 -2.19285,1.57917 -2.19455,1.78457 -0.002,0.20539 0.45639,1.63414 1.01797,3.175 2.78241,7.63432 6.04927,25.69651 4.73132,26.15906 -0.54317,0.19064 -0.84003,-0.99348 -2.38143,-9.49917 -2.35857,-13.01496 -4.12259,-18.33387 -7.26407,-21.90278 -1.31659,-1.495721 -1.56031,-2.362495 -0.66429,-2.362495 0.18692,0 1.04967,0.654297 1.91724,1.453991 l 1.5774,1.453984 2.38347,-1.535264 c 1.31091,-0.844394 3.83152,-2.972172 5.60136,-4.728393 2.75028,-2.729125 3.45282,-3.678489 4.83464,-6.533279 1.6118,-3.3299 2.79755,-7.11709 3.23119,-10.32015 l 0.22858,-1.68831 -0.99365,0.2393 c -1.99831,0.48126 -17.06825,5.97085 -24.25752,8.83639 l -7.38886,2.9451 -2.79247,-0.52972 c -2.10225,-0.39879 -5.55129,-0.53317 -13.95419,-0.54366 l -11.16172,-0.0139 -4.7625,-4.46208 c -6.02563,-5.64553 -10.10879,-8.89605 -16.70121,-13.29552 -4.18305,-2.79158 -5.30296,-3.39417 -5.56931,-2.99672 -0.18336,0.27361 -0.28782,2.6406 -0.23213,5.25998 0.0995,4.67757 0.1247,4.81159 1.41571,7.51532 1.44423,3.02462 7.91945,13.010354 9.8732,15.225932 l 1.23298,1.398211 1.68866,-1.486401 c 2.81096,-2.474295 3.20781,-1.697411 0.68364,1.338304 -1.94229,2.335915 -3.57306,5.45852 -5.80212,11.10997 -2.94246,7.46017 -3.68453,10.41951 -3.67112,14.64027 0.0102,3.2042 0.16384,4.16146 1.1384,7.09205 0.61965,1.86333 1.12663,3.64927 1.12663,3.96875 0,0.9436 -1.04429,0.66293 -1.44835,-0.38927 z m 29.84696,0.17162 c -2.08353,-0.86197 -3.30705,-1.67613 -4.0168,-2.67288 -1.65294,-2.32134 -1.17392,-5.91271 0.98216,-7.36362 1.05381,-0.70914 1.62948,-0.80602 4.7625,-0.80145 5.51589,0.008 6.58681,0.90235 6.61713,5.52578 0.02,3.05145 -0.30446,4.03188 -1.61954,4.89355 -1.10437,0.72362 -5.34952,0.98785 -6.72545,0.41862 z m 6.10423,-2.14674 c 0.77217,-0.77218 0.92613,-1.24447 0.92613,-2.84113 0,-3.50831 -1.45043,-4.66465 -5.48498,-4.37281 -2.36814,0.17129 -3.60428,0.90682 -4.57924,2.72472 -0.55423,1.03343 -0.57448,1.30407 -0.1575,2.10532 1.72198,3.30886 7.01357,4.66591 9.29559,2.3839 z m 17.88466,-2.63036 c -2.27265,-1.46133 -2.82222,-2.40316 -2.82222,-4.83658 0,-2.00105 0.11154,-2.3579 1.03995,-3.32695 0.58465,-0.61024 1.83593,-1.33638 2.85803,-1.65858 4.38403,-1.38194 8.62078,1.10186 8.62431,5.05602 0.002,2.06509 -0.46061,3.06442 -1.94041,4.19313 -1.08417,0.82693 -1.69471,0.9975 -3.99066,1.11489 -2.23412,0.11423 -2.89673,0.0189 -3.769,-0.54193 z m -51.55093,-4.12356 c -1.51509,-0.9082 -2.60046,-2.63968 -2.60046,-4.14849 0,-1.24137 1.40004,-3.1608 2.82925,-3.87887 1.5643,-0.78592 4.61788,-0.8 6.24311,-0.0288 1.80708,0.85751 2.64224,2.37199 2.46182,4.46423 -0.25915,3.00522 -2.0438,4.39258 -5.71335,4.44147 -1.27933,0.017 -2.16399,-0.21634 -3.22037,-0.84957 z m 25.4793,-7.69489 c -0.38732,-0.28321 -0.58321,-0.79294 -0.5084,-1.32292 0.11078,-0.78481 0.30289,-0.87164 2.14098,-0.9677 1.1106,-0.058 2.34092,0.0666 2.73403,0.277 0.79738,0.42674 0.9365,1.40593 0.29141,2.05102 -0.56703,0.56703 -3.86766,0.54053 -4.65802,-0.0374 z m 18.13919,-3.66531 c -0.95877,-0.85666 -1.18472,-1.35039 -1.33534,-2.91795 -0.30045,-3.12686 1.4511,-5.30322 4.26806,-5.30322 3.58089,0 5.30798,5.50437 2.54232,8.10256 -0.58255,0.54729 -1.44219,0.87313 -2.59598,0.98399 -1.52891,0.14691 -1.85622,0.0485 -2.87906,-0.86538 z m 2.64077,-5.05101 c 0,-0.62527 -0.21501,-0.90779 -0.74884,-0.98395 -0.89665,-0.12794 -1.38843,0.85552 -0.78899,1.5778 0.63252,0.76214 1.53783,0.41254 1.53783,-0.59385 z m -33.92246,3.71848 c -1.06409,-0.74532 -1.98379,-3.25005 -1.71651,-4.67479 0.12078,-0.64383 0.70447,-1.72284 1.29709,-2.39779 0.95828,-1.09142 1.27113,-1.22718 2.82801,-1.22718 2.1144,0 2.93773,0.3973 3.64078,1.75683 1.10271,2.13242 0.53285,5.23317 -1.21488,6.61043 -0.7674,0.60472 -3.93796,0.56046 -4.83449,-0.0675 z m 2.2783,-4.48976 c 0.96286,-0.96286 -0.19225,-2.57941 -1.3374,-1.87167 -0.50542,0.31236 -0.44204,1.84869 0.085,2.06137 0.68985,0.27836 0.80116,0.2615 1.25236,-0.1897 z"
       id="path2257"
       inkscape:connector-curvature="0" />
  </g>
  <g
     id="g1153"
     inkscape:groupmode="layer"
     inkscape:label="newlayer"
     transform="translate(-0.5,-0.5)" />
</svg>
